<svg width="375" height="314" viewBox="0 0 375 314" fill="none" xmlns="http://www.w3.org/2000/svg">
<path d="M296.128 255.432H247.744V267.976H284.096C285.12 267.976 286.4 267.933 287.936 267.848C289.472 267.677 290.923 267.379 292.288 266.952C293.739 266.525 294.763 265.885 295.36 265.032C295.787 264.435 296 263.837 296 263.24C296.085 262.557 296.128 261.875 296.128 261.192V255.432ZM248.128 228.424V218.312H233.792V228.424H248.128ZM264.256 205.128H233.792V214.728H257.472C259.435 214.728 261.056 214.515 262.336 214.088C263.616 213.661 264.256 212.253 264.256 209.864V205.128ZM306.752 261.064C306.752 264.733 306.027 267.336 304.576 268.872C303.211 270.323 300.736 271.261 297.152 271.688C295.701 271.944 294.208 272.072 292.672 272.072C291.136 272.072 289.6 272.072 288.064 272.072H238.144V251.336H306.752V261.064ZM329.664 238.792C329.664 240.499 329.067 241.779 327.872 242.632C326.763 243.485 325.355 243.912 323.648 243.912H216V239.176H317.504C317.504 237.811 318.016 236.317 319.04 234.696C320.064 233.075 321.387 232.264 323.008 232.264C324.971 232.264 326.549 232.861 327.744 234.056C329.024 235.251 329.664 236.829 329.664 238.792ZM273.856 228.296C273.856 229.405 273.472 230.387 272.704 231.24C271.936 232.093 270.955 232.52 269.76 232.52H224.96V174H233.792V201.112H248.128V174H256.576V201.112C262.08 201.112 267.584 201.112 273.088 201.112V210.376C273.088 212.851 272.533 214.685 271.424 215.88C270.4 216.989 269.035 217.757 267.328 218.184C265.707 218.525 263.915 218.653 261.952 218.568C260.075 218.483 258.283 218.44 256.576 218.44V228.424H265.664C265.749 227.485 266.133 226.461 266.816 225.352C267.499 224.157 268.48 223.56 269.76 223.56C270.955 223.56 271.936 224.115 272.704 225.224C273.472 226.248 273.856 227.272 273.856 228.296Z" fill="white"/>
<path d="M332.304 219.96C332.987 219.96 333.328 219.747 333.328 219.32C333.328 218.893 333.157 218.509 332.816 218.168C332.389 217.741 331.792 217.272 331.024 216.76C330.256 216.248 329.445 215.693 328.592 215.096L326.032 213.56C325.179 213.048 324.453 212.621 323.856 212.28C321.125 210.403 318.651 208.397 316.432 206.264C318.48 204.131 320.571 201.528 322.704 198.456C324.923 195.299 326.8 192.013 328.336 188.6C329.957 185.101 330.896 181.901 331.152 179H288.912V183.352H318.608C317.669 186.68 316.517 189.752 315.152 192.568C313.787 195.384 312.165 198.243 310.288 201.144C308.155 198.755 306.107 196.365 304.144 193.976C302.181 191.501 300.389 188.899 298.768 186.168L291.088 192.312C293.051 194.957 295.184 197.56 297.488 200.12C299.792 202.68 302.181 205.069 304.656 207.288C301.584 210.531 298.384 213.475 295.056 216.12C291.728 218.765 288.059 221.069 284.048 223.032C283.792 223.117 283.365 223.288 282.768 223.544C282.256 223.8 282 224.056 282 224.312C282 224.568 282.256 224.696 282.768 224.696C283.451 224.696 284.219 224.611 285.072 224.44C285.925 224.184 286.651 223.971 287.248 223.8C291.6 222.605 295.696 220.941 299.536 218.808C303.461 216.675 307.216 214.285 310.8 211.64C311.739 212.237 313.147 213.005 315.024 213.944C316.987 214.883 319.077 215.821 321.296 216.76C323.6 217.613 325.733 218.381 327.696 219.064C329.744 219.661 331.28 219.96 332.304 219.96Z" fill="white"/>
<path d="M172.872 252.327V224.022H153.004V231.561H165.062C165.062 230.647 165.29 229.893 165.747 229.299C166.249 228.705 166.82 228.408 167.46 228.408C168.099 228.408 168.716 228.682 169.309 229.231C169.903 229.733 170.2 230.373 170.2 231.15C170.2 232.109 169.903 232.817 169.309 233.274C168.716 233.685 168.053 233.891 167.323 233.891H153.004V241.841H165.062C165.062 240.927 165.336 240.196 165.884 239.648C166.432 239.1 167.003 238.826 167.597 238.826C168.236 238.826 168.83 239.077 169.378 239.579C169.926 240.082 170.2 240.722 170.2 241.498C170.2 242.549 169.88 243.28 169.241 243.692C168.601 244.057 167.848 244.24 166.98 244.24H153.004V252.327H172.872ZM195 251.779C195 252.693 194.68 253.469 194.041 254.109C193.447 254.703 192.785 255 192.054 255H133V252.327H147.455V224.022H136.836V221.486H147.455V211H153.004V221.486H172.872V211H178.695V221.486H186.025C186.025 220.435 186.277 219.59 186.779 218.95C187.327 218.31 187.989 217.991 188.766 217.991C189.496 217.991 190.159 218.288 190.752 218.882C191.392 219.43 191.712 220.161 191.712 221.075C191.712 221.943 191.392 222.651 190.752 223.199C190.159 223.748 189.519 224.022 188.834 224.022H178.695V252.327H189.04C188.994 252.236 188.948 252.144 188.903 252.053C188.857 251.916 188.834 251.824 188.834 251.779C188.834 250.865 189.154 250.088 189.793 249.449C190.433 248.809 191.141 248.489 191.917 248.489C192.694 248.489 193.401 248.809 194.041 249.449C194.68 250.088 195 250.865 195 251.779Z" fill="white"/>
<path d="M273 157.944C273 159.138 272.563 160.253 271.688 161.288C270.893 162.323 269.82 162.841 268.469 162.841L157.172 163V159.178H183.287V123.887H170.527V120.543H183.287V109.435H173.986C173.429 111.027 172.634 112.858 171.601 114.929C170.567 116.999 169.415 118.99 168.143 120.901C166.871 122.732 165.599 124.205 164.327 125.32C163.85 125.798 163.333 126.037 162.776 126.037C162.379 126.037 162.18 125.838 162.18 125.44C162.18 125.201 162.22 125.002 162.299 124.842C162.379 124.683 162.419 124.564 162.419 124.484C162.419 124.404 162.458 124.325 162.538 124.245C164.128 120.025 165.44 115.805 166.473 111.584C167.507 107.285 168.302 102.905 168.858 98.446C170.289 98.6849 171.68 98.9237 173.032 99.1626C174.383 99.4015 175.735 99.72 177.086 100.118C176.768 101.074 176.45 102.069 176.132 103.104C175.894 104.06 175.576 104.975 175.178 105.851H183.287V95.6988H192.827V105.851H205.109C205.109 104.657 205.467 103.502 206.183 102.388C206.978 101.193 208.091 100.596 209.522 100.596C210.714 100.596 211.708 101.074 212.503 102.029C213.377 102.985 213.815 104.02 213.815 105.135C213.815 106.17 213.377 107.165 212.503 108.121C211.708 108.997 210.754 109.435 209.641 109.435H192.827V120.543H203.201C203.201 119.268 203.519 118.114 204.155 117.079C204.871 115.964 205.984 115.407 207.494 115.407C208.687 115.407 209.641 115.845 210.356 116.72C211.151 117.517 211.549 118.472 211.549 119.587C211.549 120.702 211.112 121.697 210.237 122.573C209.442 123.449 208.448 123.887 207.256 123.887H192.827V159.178L263.46 159.019C263.46 157.585 263.858 156.192 264.653 154.838C265.448 153.485 266.72 152.808 268.469 152.808C269.82 152.808 270.893 153.405 271.688 154.599C272.563 155.714 273 156.829 273 157.944ZM221.804 86.263C221.804 87.6167 221.327 88.8111 220.373 89.8462C219.499 90.8814 218.346 91.399 216.915 91.399H161.107C161.027 93.7878 160.948 96.2164 160.868 98.6849C160.789 101.074 160.63 103.462 160.391 105.851C159.994 110.151 159.08 114.491 157.649 118.87C156.218 123.17 154.27 127.191 151.806 130.934C149.341 134.676 146.28 137.822 142.623 140.37C142.385 140.529 142.107 140.688 141.789 140.847C141.55 141.007 141.232 141.086 140.835 141.086C140.278 141.086 140 140.887 140 140.489C140 140.171 140.079 139.852 140.238 139.534C140.477 139.295 140.676 139.056 140.835 138.817C143.856 134.676 146.121 130.615 147.632 126.634C149.222 122.653 150.295 118.512 150.852 114.212C151.408 109.912 151.686 105.254 151.686 100.238C151.686 98.1673 151.647 96.097 151.567 94.0267C151.567 91.8767 151.527 89.7268 151.448 87.5769H172.316C170.567 85.9843 168.898 84.3121 167.308 82.5603C165.718 80.8085 164.128 79.0567 162.538 77.3049C163.174 77.0661 164.287 76.6679 165.877 76.1105C167.467 75.4735 169.017 74.9161 170.527 74.4384C172.117 73.881 173.151 73.6023 173.628 73.6023C173.946 73.6023 174.224 73.7217 174.463 73.9606C174.542 74.0402 174.582 74.1199 174.582 74.1995C174.582 74.1995 174.622 74.2393 174.701 74.3189C174.701 74.3986 174.701 74.4782 174.701 74.5578C174.781 74.6374 174.82 74.7171 174.82 74.7967C174.979 75.2745 175.099 76.0707 175.178 77.1855C175.337 78.3003 175.456 79.5345 175.536 80.8882C175.615 82.1622 175.655 83.4362 175.655 84.7103C175.655 85.9047 175.695 86.8602 175.774 87.5769H188.176C188.733 85.3473 189.249 83.1177 189.726 80.8882C190.203 78.579 190.601 76.23 190.919 73.8412C191.555 73.9208 192.39 74.08 193.423 74.3189C194.457 74.5578 195.49 74.8365 196.524 75.155C197.557 75.3939 198.511 75.6726 199.385 75.9911C200.339 76.3096 200.975 76.6281 201.293 76.9466C201.532 77.1059 201.651 77.3846 201.651 77.7827C201.651 78.1808 201.214 78.8577 200.339 79.8132C199.465 80.6891 198.392 81.6446 197.12 82.6798C195.927 83.7149 194.775 84.7103 193.662 85.6658C192.549 86.5417 191.714 87.1787 191.157 87.5769H211.31C211.31 85.7454 211.708 84.1927 212.503 82.9187C213.298 81.565 214.729 80.8882 216.796 80.8882C218.147 80.8882 219.3 81.4854 220.254 82.6798C221.287 83.7946 221.804 84.989 221.804 86.263ZM215.365 66.6747C215.365 67.7099 214.967 68.8246 214.172 70.0191C213.377 71.2135 212.304 71.8107 210.953 71.8107H154.667V67.7497H179.113C178.557 65.9979 178.08 64.2461 177.682 62.4943C177.364 60.6629 176.927 58.8314 176.371 57H178.756H181.141C182.492 57 183.844 57.0398 185.195 57.1194C186.626 57.1991 188.017 57.2787 189.369 57.3583C189.766 57.438 190.124 57.5574 190.442 57.7166C190.839 57.7963 191.038 58.0352 191.038 58.4333C191.038 59.1499 190.8 60.1055 190.323 61.2999C189.846 62.4943 189.289 63.6887 188.653 64.8831C188.017 66.0775 187.461 67.033 186.984 67.7497H204.871C204.871 66.396 205.268 65.0025 206.063 63.5692C206.938 62.136 208.21 61.4193 209.879 61.4193C211.31 61.4193 212.582 61.9369 213.695 62.972C214.808 64.0072 215.365 65.2414 215.365 66.6747Z" fill="white"/>
<path d="M314 43.6802C314 44.5635 313.681 45.3731 313.042 46.1091C312.404 46.7961 311.593 47.1396 310.611 47.1396H274.6C272.463 50.6342 269.281 53.4179 268.253 57.1497H302.284V86.5178C302.284 87.7445 302.211 89.0203 302.063 90.3452C301.916 91.67 301.596 92.8968 301.105 94.0254C300.663 95.203 299.951 96.1599 298.968 96.8959C298.035 97.632 296.758 98 295.137 98C294.154 98 292.902 97.6565 291.379 96.9695C289.856 96.2826 288.382 95.4729 286.958 94.5406C285.533 93.6574 284.428 92.9213 283.642 92.3325C283.593 92.2343 283.519 92.1362 283.421 92.0381C283.323 91.9399 283.274 91.8418 283.274 91.7437C283.274 91.5964 283.347 91.4983 283.495 91.4492C283.642 91.3511 283.765 91.302 283.863 91.302C284.011 91.302 284.133 91.3266 284.232 91.3756C284.772 91.5228 285.337 91.6946 285.926 91.8909C286.516 92.0381 287.081 92.2098 287.621 92.4061C288.211 92.5533 288.8 92.676 289.389 92.7741C289.979 92.8722 290.568 92.9213 291.158 92.9213C292.926 92.9213 294.154 92.4306 294.842 91.4492C295.579 90.4188 295.947 89.0694 295.947 87.401V59.5051H271.484V67.7487H286.074C286.123 67.1599 286.368 66.5711 286.811 65.9822C287.253 65.3443 287.842 65.0254 288.579 65.0254C289.316 65.0254 289.93 65.2953 290.421 65.835C290.912 66.3257 291.158 66.9146 291.158 67.6015C291.158 68.2885 290.888 68.9019 290.347 69.4416C289.807 69.9323 289.168 70.1777 288.432 70.1777H271.484V78.1269H286.074C286.123 77.489 286.344 76.8756 286.737 76.2868C287.179 75.6489 287.793 75.3299 288.579 75.3299C289.267 75.3299 289.881 75.5998 290.421 76.1396C290.961 76.6794 291.232 77.2927 291.232 77.9797C291.232 78.7648 290.961 79.4272 290.421 79.967C289.93 80.4577 289.267 80.703 288.432 80.703H271.484V97.5584H265.884L264.884 63.5533C263 64 266.886 59.8373 273.674 47.1396H251V44.3426C277.242 44.3426 281.409 44.3426 306.926 44.3426C306.926 43.2631 307.221 42.2817 307.811 41.3985C308.449 40.4662 309.382 40 310.611 40C311.642 40 312.453 40.3926 313.042 41.1777C313.681 41.9137 314 42.7479 314 43.6802Z" fill="white"/>
<path d="M157.056 25.448L156.672 17.64H168.192V13.672H156.416L155.904 1L144.896 1.256L145.536 13.672H112V17.64H145.92L146.304 25.576L157.056 25.448Z" fill="white"/>
<path d="M223.152 24.104C224.176 22.9093 224.688 21.6293 224.688 20.264C224.688 18.8133 224.133 17.5333 223.024 16.424C221.915 15.2293 220.635 14.632 219.184 14.632C217.307 14.632 215.899 15.4853 214.96 17.192C214.021 18.8133 213.552 20.392 213.552 21.928H189.744C190.085 21.416 190.512 20.6907 191.024 19.752C191.621 18.728 192.176 17.704 192.688 16.68C193.285 15.656 193.797 14.6747 194.224 13.736C194.651 12.7973 194.864 12.072 194.864 11.56C194.864 11.2187 194.693 10.8773 194.352 10.536C193.84 10.3653 193.413 10.2373 193.072 10.152C191.109 9.896 189.104 9.68267 187.056 9.512C185.093 9.34133 183.088 9.17066 181.04 9C180.955 11.2187 180.784 13.3947 180.528 15.528L180.016 21.928H174.128L174 25.896H179.76C179.675 26.8347 179.547 27.7733 179.376 28.712C179.291 29.6507 179.248 30.5893 179.248 31.528C179.248 32.04 179.461 32.3387 179.888 32.424C180.315 32.5093 180.699 32.552 181.04 32.552C181.467 32.552 181.979 32.296 182.576 31.784C183.259 31.1867 183.899 30.504 184.496 29.736C185.179 29.0533 185.776 28.328 186.288 27.56C186.8 26.792 187.184 26.2373 187.44 25.896H219.44C220.891 25.896 222.128 25.2987 223.152 24.104Z" fill="white"/>
<circle cx="183.5" cy="272.5" r="7.5" fill="white"/>
<rect x="297.068" y="0.963074" width="2.3352" height="229.606" transform="rotate(29.403 297.068 0.963074)" fill="white"/>
<rect x="148.725" y="265" width="2.3352" height="39.7781" transform="rotate(29.403 148.725 265)" fill="white"/>
<path d="M168 45.883C162.912 44.6487 151.949 42.6244 148.798 44.4018C144.859 46.6235 147.321 49.0921 149.537 49.0921C151.752 49.0921 152.491 48.0102 151.998 45.883C151.506 43.7557 150.521 43.6612 143.136 42.1801C135.751 40.6989 132.058 30.5778 122.703 33.5401C113.348 36.5024 112.61 44.4018 112.364 52.5481C112.118 60.6944 108.671 75.5059 112.364 78.9619C116.056 82.4179 117.287 75.5059 114.825 75.0122C112.364 74.5185 109.163 75.9996 108.671 86.3676C108.179 96.7357 111.379 99.4511 113.102 98.7105C114.825 97.97 116.009 92.0454 112.364 91.5517C108.718 91.0579 109.163 103.648 109.902 107.351C110.64 111.053 111.379 117.472 113.102 117.472C114.825 117.472 115.564 112.162 113.102 111.794C110.64 111.426 107.44 116.731 108.671 123.149C109.902 129.568 112.364 158.697 112.364 166.596C112.364 174.496 110.887 201.65 105.471 194.491C100.055 187.332 106.948 167.584 106.948 156.722C106.948 145.86 107.194 137.714 103.994 130.802C100.793 123.89 100.055 122.656 101.04 120.434C102.024 118.212 105.471 115.744 103.255 113.028C101.04 110.313 91.6848 115.003 85.038 118.706C78.3911 122.409 74.6985 126.852 76.4217 128.333C78.145 129.815 87.0074 127.84 91.931 124.877C96.8545 121.915 106.455 114.016 100.301 114.509C94.1466 115.003 83.8071 118.953 80.8529 124.877C77.8988 130.802 83.3147 127.593 85.038 132.283C86.7612 136.973 90.7001 149.563 91.4386 171.534C92.1771 193.504 88.7306 204.859 101.04 209.056C113.348 213.253 120.241 211.031 124.426 198.688C128.612 186.345 124.673 154.747 123.688 143.639C122.703 132.53 116.549 69.3344 118.518 59.707C120.488 50.0795 119.011 41.1927 125.165 39.9584" stroke="white" stroke-width="1.5" stroke-linecap="round"/>
<path d="M354.139 308.913C351.443 307.736 347.062 303.313 351.106 295.039C356.161 284.697 359.7 290.247 359.7 295.039C359.7 299.832 362.481 313.958 351.106 312.949C339.731 311.94 348.073 293.526 351.106 289.238C354.139 284.949 341.248 293.021 333.665 295.039C326.082 297.057 294.233 291.76 290.441 295.039C286.649 298.318 292.716 301.093 294.233 298.823C295.749 296.553 297.266 295.039 283.869 295.039C270.472 295.039 268.197 297.057 270.219 298.823C272.241 300.589 280.836 294.535 274.516 293.778C268.197 293.021 262.636 292.517 244.437 292.517C226.237 292.517 191.608 291.003 188.069 294.787C184.53 298.571 190.596 299.832 194.388 300.841C198.18 301.85 203.741 302.354 203.488 300.841C203.235 299.327 201.971 295.544 203.488 295.544C205.004 295.544 205.51 295.039 205.763 299.832C206.016 304.625 216.885 303.616 223.204 303.363C229.523 303.111 232.304 302.354 232.556 298.571C232.809 294.787 234.579 293.273 235.59 294.787C236.601 296.3 232.809 300.589 235.59 302.354C238.37 304.12 240.645 303.868 241.151 302.354C241.656 300.841 239.381 295.544 241.909 295.544C244.437 295.544 245.195 297.309 245.195 300.336C245.195 303.363 245.701 304.12 247.47 304.12C249.239 304.12 251.009 305.129 250.756 300.841C250.503 296.553 254.548 297.309 254.548 300.336C254.548 303.363 254.295 308.156 258.845 308.156C263.395 308.156 267.439 308.408 262.889 305.381C258.339 302.354 270.725 303.363 273.253 303.363C275.78 303.363 283.111 309.165 287.155 308.66C291.199 308.156 291.199 303.363 298.277 303.363C305.354 303.363 336.193 303.616 340.995 307.651" stroke="white" stroke-width="1.5" stroke-linecap="round"/>
<rect x="372.529" y="123" width="2.3352" height="39.7781" transform="rotate(29.403 372.529 123)" fill="white"/>
<rect x="73.5273" y="75" width="2.3352" height="149.766" transform="rotate(29.403 73.5273 75)" fill="white"/>
</svg>
